<svg width="16" height="15" viewBox="0 0 16 15" fill="none" xmlns="http://www.w3.org/2000/svg">
<path d="M3.55364 0C1.77909 0 0.339355 1.25977 0.339355 2.8125V12.1875C0.339355 13.7402 1.77909 15 3.55364 15H13.1965H14.2679C14.8606 15 15.3394 14.5811 15.3394 14.0625C15.3394 13.5439 14.8606 13.125 14.2679 13.125V11.25C14.8606 11.25 15.3394 10.8311 15.3394 10.3125V0.9375C15.3394 0.418945 14.8606 0 14.2679 0H13.1965H3.55364ZM3.55364 11.25H12.1251V13.125H3.55364C2.96101 13.125 2.48221 12.7061 2.48221 12.1875C2.48221 11.6689 2.96101 11.25 3.55364 11.25ZM4.62507 4.21875C4.62507 3.96094 4.86614 3.75 5.16078 3.75H11.5894C11.884 3.75 12.1251 3.96094 12.1251 4.21875C12.1251 4.47656 11.884 4.6875 11.5894 4.6875H5.16078C4.86614 4.6875 4.62507 4.47656 4.62507 4.21875ZM5.16078 5.625H11.5894C11.884 5.625 12.1251 5.83594 12.1251 6.09375C12.1251 6.35156 11.884 6.5625 11.5894 6.5625H5.16078C4.86614 6.5625 4.62507 6.35156 4.62507 6.09375C4.62507 5.83594 4.86614 5.625 5.16078 5.625Z" fill="black"/>
</svg>
