<svg width="18" height="18" viewBox="0 0 18 18" fill="none" xmlns="http://www.w3.org/2000/svg">
<path d="M3.08085 0C1.4419 0 0.109375 1.00898 0.109375 2.25V15.75C0.109375 16.991 1.4419 18 3.08085 18H14.9667C16.6057 18 17.9382 16.991 17.9382 15.75V5.625H11.9953C11.1735 5.625 10.5095 5.12227 10.5095 4.5V0H3.08085ZM11.9953 0V4.5H17.9382L11.9953 0ZM10.1381 8.15625V11.7457L11.5774 10.6559C12.0138 10.3254 12.7196 10.3254 13.1514 10.6559C13.5832 10.9863 13.5878 11.5207 13.1514 11.8477L9.80845 14.3789C9.37201 14.7094 8.66629 14.7094 8.2345 14.3789L4.89159 11.8477C4.45516 11.5172 4.45516 10.9828 4.89159 10.6559C5.32803 10.3289 6.03375 10.3254 6.46554 10.6559L7.90485 11.7457V8.15625C7.90485 7.68867 8.40164 7.3125 9.01915 7.3125C9.63666 7.3125 10.1335 7.68867 10.1335 8.15625H10.1381Z" fill="black"/>
</svg>
