<svg width="16" height="15" viewBox="0 0 16 15" fill="none" xmlns="http://www.w3.org/2000/svg">
<path d="M5.53227 12.078C5.53227 12.14 5.46272 12.1896 5.37502 12.1896C5.27522 12.1989 5.20566 12.1493 5.20566 12.078C5.20566 12.0159 5.27522 11.9663 5.36292 11.9663C5.45364 11.957 5.53227 12.0066 5.53227 12.078ZM4.59175 11.9384C4.57058 12.0004 4.63106 12.0718 4.72179 12.0904C4.80042 12.1214 4.89114 12.0904 4.90929 12.0283C4.92743 11.9663 4.86998 11.895 4.77925 11.8671C4.70062 11.8454 4.61292 11.8764 4.59175 11.9384ZM5.92844 11.8857C5.84074 11.9074 5.78026 11.9663 5.78933 12.0377C5.7984 12.0997 5.87703 12.14 5.96776 12.1183C6.05546 12.0966 6.11594 12.0377 6.10687 11.9756C6.0978 11.9167 6.01614 11.8764 5.92844 11.8857ZM7.91836 0C3.72381 0 0.515137 3.26608 0.515137 7.56812C0.515137 11.0079 2.62602 13.9514 5.64114 14.9874C6.02824 15.0587 6.16433 14.8137 6.16433 14.6121C6.16433 14.4198 6.15526 13.359 6.15526 12.7076C6.15526 12.7076 4.03832 13.1729 3.59377 11.7833C3.59377 11.7833 3.24901 10.8807 2.75304 10.6481C2.75304 10.6481 2.0605 10.1611 2.80143 10.1704C2.80143 10.1704 3.55445 10.2325 3.96877 10.9707C4.63106 12.1679 5.74094 11.8236 6.1734 11.6189C6.24296 11.1227 6.43953 10.7784 6.65727 10.5737C4.96675 10.3814 3.2611 10.1301 3.2611 7.14629C3.2611 6.29333 3.49094 5.86529 3.97481 5.3194C3.89619 5.11779 3.63913 4.28653 4.05344 3.21335C4.6855 3.01174 6.14014 4.05081 6.14014 4.05081C6.74498 3.87711 7.39518 3.78716 8.03933 3.78716C8.68348 3.78716 9.33368 3.87711 9.93852 4.05081C9.93852 4.05081 11.3932 3.00864 12.0252 3.21335C12.4395 4.28964 12.1825 5.11779 12.1038 5.3194C12.5877 5.8684 12.8841 6.29643 12.8841 7.14629C12.8841 10.1394 11.1028 10.3783 9.41231 10.5737C9.69054 10.8187 9.92643 11.2839 9.92643 12.0128C9.92643 13.0581 9.91735 14.3515 9.91735 14.6059C9.91735 14.8075 10.0565 15.0525 10.4405 14.9812C13.4647 13.9514 15.5151 11.0079 15.5151 7.56812C15.5151 3.26608 12.1129 0 7.91836 0ZM3.45465 10.6977C3.41534 10.7287 3.42441 10.8001 3.47582 10.859C3.52421 10.9086 3.59377 10.9304 3.63308 10.89C3.67239 10.859 3.66332 10.7877 3.61191 10.7287C3.56352 10.6791 3.49397 10.6574 3.45465 10.6977ZM3.12804 10.4465C3.10687 10.4868 3.13711 10.5364 3.1976 10.5675C3.24598 10.5985 3.30647 10.5892 3.32764 10.5457C3.34881 10.5054 3.31856 10.4558 3.25808 10.4248C3.1976 10.4062 3.14921 10.4155 3.12804 10.4465ZM4.10788 11.5507C4.05949 11.591 4.07764 11.6841 4.14719 11.743C4.21675 11.8143 4.30445 11.8236 4.34377 11.774C4.38308 11.7337 4.36494 11.6406 4.30445 11.5817C4.23792 11.5104 4.14719 11.5011 4.10788 11.5507ZM3.76312 11.0947C3.71473 11.1258 3.71473 11.2064 3.76312 11.2777C3.81151 11.3491 3.89316 11.3801 3.93248 11.3491C3.98086 11.3088 3.98086 11.2281 3.93248 11.1568C3.89014 11.0854 3.81151 11.0544 3.76312 11.0947Z" fill="black"/>
</svg>
