<svg width="15" height="15" viewBox="0 0 15 15" fill="none" xmlns="http://www.w3.org/2000/svg">
<path d="M14.3145 0.685547C15.2285 1.59961 15.2285 3.08496 14.3145 3.99902L4.00195 14.3115C3.08789 15.2256 1.60254 15.2256 0.688477 14.3115C-0.225586 13.3975 -0.225586 11.9121 0.688477 10.998L11.001 0.685547C11.915 -0.228516 13.4004 -0.228516 14.3145 0.685547ZM12.9873 2.71582C12.8057 2.53418 12.5068 2.53418 12.3252 2.71582C11.959 3.08203 11.6279 3.1582 11.2266 3.23145L11.1533 3.24316C10.749 3.31641 10.2275 3.40723 9.74707 3.8877C9.25781 4.37695 9.13477 4.94238 9.04102 5.37891L9.03516 5.4082C8.93555 5.86523 8.85938 6.18164 8.5752 6.46582C8.29102 6.75 7.97461 6.82617 7.51758 6.92578L7.48828 6.93164C7.05176 7.02539 6.48633 7.14844 5.99707 7.6377C5.50781 8.12695 5.38477 8.69238 5.29102 9.12891L5.28516 9.1582C5.18555 9.61523 5.10938 9.93164 4.8252 10.2158C4.55566 10.4854 4.29785 10.5322 3.86719 10.6084L3.84082 10.6143C3.38379 10.6963 2.81836 10.8164 2.24707 11.3877C2.06543 11.5693 2.06543 11.8682 2.24707 12.0498C2.42871 12.2314 2.72754 12.2314 2.90918 12.0498C3.27539 11.6836 3.60645 11.6074 4.00781 11.5342L4.08105 11.5225C4.48535 11.4492 5.00684 11.3584 5.4873 10.8779C5.97656 10.3887 6.09961 9.82324 6.19336 9.38672L6.19922 9.35742C6.29883 8.90039 6.375 8.58398 6.65918 8.2998C6.94336 8.01562 7.25977 7.93945 7.7168 7.83984L7.74609 7.83398C8.18262 7.74023 8.74805 7.61719 9.2373 7.12793C9.72656 6.63867 9.84961 6.07324 9.94336 5.63672L9.94922 5.60742C10.0488 5.15039 10.125 4.83398 10.4092 4.5498C10.6787 4.28027 10.9365 4.2334 11.3672 4.15723L11.3936 4.15137C11.8506 4.06934 12.416 3.94922 12.9873 3.37793C13.1689 3.19629 13.1689 2.89746 12.9873 2.71582ZM5.60156 14.0391L14.0391 5.60156L14.502 6.06445C14.8213 6.38379 15 6.81445 15 7.26562C15 7.7168 14.8213 8.14746 14.502 8.4668L8.4668 14.502C8.14746 14.8213 7.7168 15 7.26562 15C6.81445 15 6.38379 14.8213 6.06445 14.502L5.60156 14.0391ZM0.498047 8.93555C0.178711 8.61621 0 8.18555 0 7.73438C0 7.2832 0.178711 6.85254 0.498047 6.5332L6.5332 0.498047C6.85254 0.178711 7.2832 2.79397e-08 7.73438 2.79397e-08C8.18555 2.79397e-08 8.61621 0.178711 8.93555 0.498047L9.39844 0.960938L0.960938 9.39844L0.498047 8.93555Z" fill="black"/>
</svg>
