<svg width="16" height="16" viewBox="0 0 16 16" fill="none" xmlns="http://www.w3.org/2000/svg">
<path d="M14.4437 0.865234H1.58322C0.993931 0.865234 0.515137 1.35073 0.515137 1.94671V14.7838C0.515137 15.3797 0.993931 15.8652 1.58322 15.8652H14.4437C15.033 15.8652 15.5151 15.3797 15.5151 14.7838V1.94671C15.5151 1.35073 15.033 0.865234 14.4437 0.865234ZM5.04862 13.7224H2.8254V6.56389H5.05197V13.7224H5.04862ZM3.93701 5.58622C3.22384 5.58622 2.64795 5.00698 2.64795 4.29715C2.64795 3.58733 3.22384 3.00809 3.93701 3.00809C4.64683 3.00809 5.22607 3.58733 5.22607 4.29715C5.22607 5.01032 4.65018 5.58622 3.93701 5.58622ZM13.3823 13.7224H11.1591V10.2402C11.1591 9.40988 11.1424 8.3418 10.004 8.3418C8.84549 8.3418 8.66804 9.24582 8.66804 10.18V13.7224H6.44482V6.56389H8.57764V7.54157H8.60777C8.90576 6.97907 9.63233 6.38644 10.7138 6.38644C12.9638 6.38644 13.3823 7.8697 13.3823 9.79827V13.7224Z" fill="black"/>
</svg>
