<svg width="13" height="12" viewBox="0 0 13 12" fill="none" xmlns="http://www.w3.org/2000/svg">
<path d="M0.0805968 3.09964C0.414308 1.7751 4.87318 1.57224 5.80146 1.40518C7.25124 1.14266 8.70624 0.915936 10.1665 0.730977C10.8131 0.647448 11.8613 0.36106 12.4819 0.730977C12.4976 0.719045 12.5184 0.701145 12.5341 0.689212C12.6645 0.587784 12.7948 0.689212 12.847 0.82644C12.9461 0.856272 13.0243 0.957701 12.993 1.08896C12.0491 4.61511 11.2877 8.51713 9.34769 11.5302C9.20688 11.745 8.98785 11.7867 8.80533 11.6077C8.26296 11.0827 7.74145 10.5398 7.22516 9.98487C7.19387 10.0923 7.11565 10.1877 7.00092 10.1997C6.03613 10.2892 4.97748 10.4503 4.05441 10.8441C4.03361 10.8799 4.01796 10.9157 3.99705 10.9575C3.81974 11.2916 3.39732 11.1364 3.37646 10.7665C3.33474 9.87753 3.37646 8.99451 3.42339 8.10545C3.46511 7.32385 3.40253 6.46469 3.52769 5.70105C3.52769 5.68912 3.53812 5.67719 3.53812 5.66525C3.16264 5.56382 2.7663 5.22971 2.47425 5.03878C1.81194 4.6092 1.18092 4.11995 0.508179 3.70231C0.424738 3.65458 0.38307 3.58298 0.356995 3.50541C0.351727 3.50541 0.346565 3.50541 0.346565 3.50541C0.169201 3.49342 0.0284462 3.30846 0.0805968 3.09964ZM7.43377 4.26309C6.80796 4.64494 4.93576 6.2857 4.17957 5.80242C4.11178 5.76066 4.08049 5.68309 4.07006 5.59956C4.06479 5.60553 4.05436 5.60553 4.0492 5.6115C4.06484 5.63536 4.08049 5.66519 4.09092 5.69503C4.28388 6.33343 4.14834 7.14486 4.11178 7.80117C4.08044 8.36201 4.0492 8.92285 4.03877 9.48369C4.45076 8.77369 4.87318 8.06965 5.32689 7.38948C5.32167 7.31192 5.33732 7.22242 5.3999 7.14486C6.44812 5.88595 7.8092 4.81796 9.0035 3.74401C9.43635 3.3562 9.8692 2.96241 10.302 2.5746C9.34248 3.12351 8.38812 3.67838 7.43377 4.26309ZM8.98785 10.7366C10.6045 8.0159 11.1052 4.74637 12.2733 1.78703C12.023 2.01972 11.7049 2.25241 11.5745 2.36577C10.8705 3.00418 10.1873 3.66048 9.47285 4.29292C8.33597 5.30124 7.24603 6.64965 5.98398 7.47301C6.96963 8.58271 7.95006 9.69252 8.98785 10.7366ZM6.88619 9.61495C6.4064 9.08985 5.93183 8.5589 5.46248 8.02192C5.18608 8.6484 4.88361 9.251 4.57592 9.85361C5.32689 9.62092 6.18215 9.4896 6.88619 9.61495ZM2.72458 4.22132C3.0271 4.43015 3.33474 4.63897 3.63199 4.85376C3.7363 4.93133 3.84581 4.99696 3.9449 5.07452C4.02834 5.14015 4.21608 5.31318 4.04398 5.27738C4.09087 5.28931 4.11694 5.32511 4.13259 5.36687C4.14828 5.34897 4.15866 5.33107 4.17436 5.31914C5.31124 4.57334 6.53151 3.93494 7.69452 3.2309C8.40898 2.80132 9.12344 2.27031 9.86398 1.81686C8.54457 1.96602 7.17823 2.00182 5.9892 2.21065C4.75323 2.4314 3.52253 2.67603 2.30216 2.96241C2.01533 3.02804 1.68678 3.16527 1.35823 3.2846C1.82237 3.58888 2.27092 3.91107 2.72458 4.22132Z" fill='black' />
</svg>
