<svg width="13" height="12" viewBox="0 0 13 12" fill="none" xmlns="http://www.w3.org/2000/svg">
<path d="M0.0110167 2.55325C0.344728 1.22871 4.8036 1.02585 5.73188 0.858794C7.18166 0.596273 8.63666 0.369549 10.0969 0.184591C10.7435 0.101061 11.7918 -0.185326 12.4124 0.184591C12.428 0.172658 12.4489 0.154759 12.4645 0.142826C12.5949 0.0413969 12.7253 0.142826 12.7774 0.280053C12.8765 0.309885 12.9547 0.411314 12.9234 0.542575C11.9795 4.06872 11.2181 7.97075 9.27811 10.9838C9.1373 11.1986 8.91827 11.2403 8.73575 11.0613C8.19338 10.5363 7.67187 9.99342 7.15558 9.43848C7.12429 9.54594 7.04607 9.64134 6.93134 9.65333C5.96655 9.74283 4.9079 9.90392 3.98483 10.2977C3.96403 10.3335 3.94838 10.3693 3.92747 10.4111C3.75016 10.7452 3.32774 10.5901 3.30688 10.2201C3.26516 9.33115 3.30688 8.44812 3.35381 7.55907C3.39553 6.77747 3.33295 5.91831 3.45811 5.15467C3.45811 5.14273 3.46854 5.1308 3.46854 5.11887C3.09306 5.01744 2.69672 4.68332 2.40467 4.49239C1.74236 4.06281 1.11134 3.57357 0.438599 3.15592C0.355158 3.10819 0.31349 3.03659 0.287415 2.95903C0.282147 2.95903 0.276985 2.95903 0.276985 2.95903C0.0996207 2.94704 -0.0411338 2.76208 0.0110167 2.55325ZM7.36419 3.7167C6.73838 4.09855 4.86618 5.73931 4.10999 5.25603C4.0422 5.21427 4.01091 5.13671 4.00048 5.05318C3.99521 5.05914 3.98478 5.05914 3.97962 5.06511C3.99526 5.08897 4.01091 5.11881 4.02134 5.14864C4.2143 5.78704 4.07876 6.59848 4.0422 7.25478C4.01086 7.81562 3.97962 8.37646 3.96919 8.9373C4.38118 8.2273 4.8036 7.52327 5.25731 6.8431C5.25209 6.76553 5.26774 6.67604 5.33032 6.59848C6.37854 5.33956 7.73962 4.27158 8.93392 3.19762C9.36677 2.80981 9.79962 2.41603 10.2325 2.02821C9.2729 2.57712 8.31854 3.13199 7.36419 3.7167ZM8.91827 10.1902C10.5349 7.46951 11.0356 4.19998 12.2038 1.24064C11.9534 1.47333 11.6353 1.70602 11.5049 1.81939C10.8009 2.45779 10.1177 3.11409 9.40327 3.74653C8.26639 4.75486 7.17644 6.10326 5.9144 6.92663C6.90005 8.03632 7.88048 9.14613 8.91827 10.1902ZM6.81661 9.06857C6.33682 8.54346 5.86225 8.01251 5.3929 7.47554C5.1165 8.10201 4.81403 8.70461 4.50634 9.30722C5.25731 9.07453 6.11257 8.94321 6.81661 9.06857ZM2.655 3.67494C2.95752 3.88376 3.26516 4.09259 3.56241 4.30738C3.66672 4.38494 3.77623 4.45057 3.87532 4.52813C3.95876 4.59376 4.1465 4.76679 3.9744 4.73099C4.02129 4.74292 4.04736 4.77872 4.06301 4.82049C4.0787 4.80259 4.08908 4.78469 4.10478 4.77276C5.24166 4.02695 6.46193 3.38855 7.62494 2.68451C8.3394 2.25493 9.05386 1.72392 9.7944 1.27048C8.47499 1.41964 7.10865 1.45543 5.91962 1.66426C4.68365 1.88502 3.45295 2.12964 2.23258 2.41603C1.94575 2.48166 1.6172 2.61888 1.28865 2.73821C1.75279 3.0425 2.20134 3.36468 2.655 3.67494Z" fill="white"/>
</svg>
