<svg width="16" height="15" viewBox="0 0 16 15" fill="none" xmlns="http://www.w3.org/2000/svg">
<path d="M15.1143 10.9344C15.1143 11.936 14.555 12.916 13.3509 13.6513C12.1444 14.3881 10.2945 14.875 7.73926 14.875C4.7444 14.875 2.89919 14.3865 1.80571 13.6541C0.722025 12.9283 0.364258 11.9543 0.364258 10.9344C0.364258 10.6996 0.470309 10.2889 0.562865 10.0527C0.886961 9.22555 1.76223 8.52089 3.03165 8.02209C4.29686 7.52495 5.93259 7.24121 7.73926 7.24121C9.79481 7.24121 11.6496 7.66564 12.9858 8.34592C14.329 9.02968 15.1143 9.95168 15.1143 10.9344Z" fill="black" stroke="white" stroke-width="0.25"/>
<path d="M0.458008 10.5146C1.41105 13.9216 6.7011 13.2755 7.17072 13.4517" stroke="white" stroke-width="0.25"/>
<path d="M12.6622 7.16624V7.17405L12.6632 7.18181C12.7261 7.68299 12.6226 8.09272 12.396 8.42909C12.1678 8.76789 11.8085 9.0415 11.3454 9.25555C10.4167 9.68479 9.10091 9.86079 7.70355 9.86079C6.29819 9.86079 5.07097 9.77819 4.19681 9.39678C3.76318 9.20758 3.42187 8.947 3.18796 8.59047C2.95401 8.23389 2.8208 7.77113 2.8208 7.16624C2.8208 6.3884 3.32847 5.71813 4.20699 5.23569C5.08484 4.75362 6.31468 4.47168 7.70355 4.47168C9.09024 4.47168 10.3395 4.78369 11.2376 5.28182C12.14 5.78233 12.6622 6.45375 12.6622 7.16624Z" fill="black" stroke="white" stroke-width="0.25"/>
<path d="M5.88609 0.125138C6.1329 0.125138 6.32051 0.205609 6.46868 0.348592C6.6202 0.494806 6.73767 0.713556 6.82544 1.0002C7.00161 1.57558 7.04562 2.38074 7.04562 3.28962C7.04562 4.19735 6.99305 5.0028 6.81267 5.57824C6.72274 5.86513 6.60409 6.08447 6.45361 6.23106C6.30646 6.37441 6.1231 6.4541 5.88609 6.4541C5.75533 6.4541 5.61728 6.38673 5.47794 6.2358C5.33847 6.08474 5.20713 5.85928 5.09423 5.57017C4.86874 4.99271 4.72656 4.18646 4.72656 3.28962C4.72656 2.39278 4.86874 1.58652 5.09423 1.00907C5.20713 0.719957 5.33847 0.494496 5.47794 0.343435C5.61728 0.192505 5.75533 0.125138 5.88609 0.125138Z" fill="black" stroke="white" stroke-width="0.25"/>
<path d="M12.4746 6.87256C10.9415 9.69211 5.81715 8.39982 5.34754 8.57604" stroke="white" stroke-width="0.25"/>
</svg>
