<svg width="16" height="16" viewBox="0 0 16 16" fill="none" xmlns="http://www.w3.org/2000/svg">
<path d="M13.908 0.865234H2.12228C1.235 0.865234 0.515137 1.5851 0.515137 2.47238V14.2581C0.515137 15.1454 1.235 15.8652 2.12228 15.8652H13.908C14.7953 15.8652 15.5151 15.1454 15.5151 14.2581V2.47238C15.5151 1.5851 14.7953 0.865234 13.908 0.865234ZM12.2707 6.1822C12.2774 6.27595 12.2774 6.37305 12.2774 6.4668C12.2774 9.3697 10.0676 12.7146 6.02965 12.7146C4.78411 12.7146 3.62898 12.353 2.65799 11.7302C2.83545 11.7503 3.00621 11.757 3.18701 11.757C4.21491 11.757 5.15911 11.4088 5.91246 10.8195C4.94817 10.7994 4.1379 10.1666 3.86 9.29604C4.19817 9.34626 4.50286 9.34626 4.85107 9.25586C3.84661 9.05162 3.09326 8.16769 3.09326 7.09961V7.07282C3.38456 7.23689 3.72607 7.33733 4.08433 7.35073C3.78314 7.15038 3.53622 6.87858 3.36563 6.55959C3.19503 6.2406 3.10606 5.88434 3.10665 5.5226C3.10665 5.11412 3.2138 4.73912 3.40465 4.41434C4.48612 5.74693 6.11 6.61747 7.93143 6.71122C7.62005 5.22126 8.735 4.01256 10.0743 4.01256C10.7071 4.01256 11.2763 4.27706 11.6781 4.70564C12.1736 4.61189 12.6491 4.42773 13.0709 4.17662C12.9069 4.68555 12.562 5.11412 12.1067 5.38532C12.5486 5.33845 12.9772 5.21456 13.3723 5.04381C13.0743 5.48242 12.6993 5.87081 12.2707 6.1822Z" fill="black"/>
</svg>
